<?xml version="1.0" encoding="utf-8"?>
<!-- Generator: Adobe Illustrator 17.1.0, SVG Export Plug-In . SVG Version: 6.00 Build 0)  -->
<!DOCTYPE svg PUBLIC "-//W3C//DTD SVG 1.1//EN" "http://www.w3.org/Graphics/SVG/1.1/DTD/svg11.dtd">
<svg version="1.1" id="Layer_1" xmlns="http://www.w3.org/2000/svg" xmlns:xlink="http://www.w3.org/1999/xlink" x="0px" y="0px"
	 viewBox="0 0 512 512" enable-background="new 0 0 512 512" xml:space="preserve">
<rect fill="#AF0404" width="512" height="512"/>
<path fill="#FFFFFF" stroke="#FFFFFF" stroke-width="3" stroke-miterlimit="10" d="M430.5,358.6h-97.2v-13.4
	c3.1-0.3,6.2-0.5,9.4-0.8c3.2-0.3,6-0.8,8.4-1.6c3.8-1.2,6.6-3.3,8.4-6.4c1.8-3,2.7-7,2.7-11.8V221.5c0-14-3.2-24.9-9.6-32.5
	c-6.4-7.6-14.4-11.4-24-11.4c-6.6,0-12.8,1-18.6,3c-5.8,2-11.1,4.9-16,8.5c-3.9,3-7.2,6.2-9.8,9.6c-2.6,3.4-4.6,6.3-6,8.6v115.2
	c0,4.7,0.8,8.6,2.4,11.6c1.6,3,4.4,5.4,8.3,7c3.1,1.2,5.9,2.1,8.4,2.7c2.5,0.6,5.8,1,9.8,1.3v13.4h-95.2v-13.4
	c3.1-0.3,6.1-0.5,9-0.8c2.9-0.3,5.6-0.8,8-1.6c3.8-1.2,6.6-3.3,8.4-6.4c1.8-3,2.7-7,2.7-11.8V221.5c0-14-3.2-24.9-9.6-32.5
	c-6.4-7.6-14.4-11.4-24.1-11.4c-6.6,0-12.9,1-18.7,3.1c-5.8,2.1-11.2,5-16,8.6c-3.9,3-7.2,6.3-9.9,10c-2.7,3.7-4.7,6.5-6.1,8.4
	v114.4c0,4.6,0.9,8.4,2.8,11.5c1.9,3.1,4.7,5.5,8.5,7.1c2.8,1.4,5.7,2.4,8.7,3c3,0.7,6.3,1.1,9.9,1.4v13.4h-97v-13.4
	c3.1-0.3,6.3-0.5,9.6-0.8c3.3-0.3,6.2-0.8,8.6-1.6c3.8-1.2,6.6-3.3,8.4-6.4s2.7-7,2.7-11.8v-124c0-4.3-1-8.2-2.9-11.6
	c-2-3.4-4.7-6.4-8.2-8.8c-2.6-1.6-5.7-2.9-9.5-3.9c-3.8-1-7.7-1.7-11.7-1.9v-13.4l66.8-4.5l2.8,2.8v28.6h1.4
	c3.4-3.4,7.5-7.4,12.4-12c4.9-4.6,9.4-8.3,13.6-11.1c4.7-3.2,10.6-5.9,17.7-8.1c7.1-2.2,14.8-3.2,23-3.2c13,0,24.1,3.5,33.4,10.4
	c9.3,7,16,15.4,20.1,25.2c4.8-4.7,9.1-8.9,12.8-12.5c3.7-3.6,8.6-7.4,14.7-11.4c5.1-3.5,11.2-6.3,18.1-8.5
	c6.9-2.2,14.7-3.2,23.2-3.2c16.9,0,30.2,5.5,40,16.6c9.8,11.1,14.8,28.1,14.8,51v101.5c0,4.7,0.8,8.6,2.4,11.6c1.6,3,4.4,5.4,8.3,7
	c3.1,1.2,6.2,2.1,9.2,2.7c3,0.6,6.4,1,10.2,1.3V358.6z"/>
</svg>
